<?xml version="1.0" encoding="iso-8859-1"?>
<!-- Generator: Adobe Illustrator 19.0.0, SVG Export Plug-In . SVG Version: 6.00 Build 0)  -->
<svg version="1.1" id="Capa_1" xmlns="http://www.w3.org/2000/svg" xmlns:xlink="http://www.w3.org/1999/xlink" x="0px" y="0px"
	 viewBox="0 0 469.333 469.333" style="enable-background:new 0 0 469.333 469.333;" xml:space="preserve">
<g>
	<g>
		<g>
			<path d="M106.667,320c0,3.167,1.396,6.167,3.833,8.198l64,53.333c2,1.656,4.417,2.469,6.833,2.469
				c3.042,0,6.083-1.302,8.188-3.833c3.771-4.531,3.167-11.26-1.354-15.031L134,320l54.167-45.135
				c4.521-3.771,5.125-10.5,1.354-15.031c-3.771-4.542-10.5-5.125-15.021-1.365l-64,53.333
				C108.062,313.833,106.667,316.833,106.667,320z"/>
			<path d="M281.167,274.865L335.333,320l-54.167,45.135c-4.521,3.771-5.125,10.5-1.354,15.031c2.104,2.531,5.146,3.833,8.188,3.833
				c2.417,0,4.833-0.813,6.833-2.469l64-53.333c2.438-2.031,3.833-5.031,3.833-8.198c0-3.167-1.396-6.167-3.833-8.198l-64-53.333
				c-4.5-3.729-11.229-3.156-15.021,1.365C276.042,264.365,276.646,271.094,281.167,274.865z"/>
			<path d="M198.458,404.469c1.375,0.594,2.792,0.865,4.208,0.865c4.125,0,8.063-2.417,9.813-6.469l64-149.333
				c2.313-5.406-0.188-11.677-5.604-14c-5.375-2.333-11.667,0.156-14.021,5.604l-64,149.333
				C190.542,395.875,193.042,402.146,198.458,404.469z"/>
			<path d="M74.667,213.333c17.646,0,32,14.354,32,32c0,5.896,4.771,10.667,10.667,10.667c5.896,0,10.667-4.771,10.667-10.667
				c0-17.646,14.354-32,32-32c5.896,0,10.667-4.771,10.667-10.667S165.896,192,160,192c-17.646,0-32-14.354-32-32
				c0-5.896-4.771-10.667-10.667-10.667c-5.896,0-10.667,4.771-10.667,10.667c0,17.646-14.354,32-32,32
				C68.771,192,64,196.771,64,202.667S68.771,213.333,74.667,213.333z"/>
			<path d="M352,234.667c5.875,0,10.667,4.781,10.667,10.667c0,5.896,4.771,10.667,10.667,10.667S384,251.229,384,245.333
				c0-5.885,4.792-10.667,10.667-10.667c5.896,0,10.667-4.771,10.667-10.667c0-5.896-4.771-10.667-10.667-10.667
				c-5.875,0-10.667-4.781-10.667-10.667c0-5.896-4.771-10.667-10.667-10.667s-10.667,4.771-10.667,10.667
				c0,5.885-4.792,10.667-10.667,10.667c-5.896,0-10.667,4.771-10.667,10.667C341.333,229.896,346.104,234.667,352,234.667z"/>
			<path d="M426.667,0h-384C19.146,0,0,19.135,0,42.667v384c0,23.531,19.146,42.667,42.667,42.667h384
				c23.521,0,42.667-19.135,42.667-42.667v-384C469.333,19.135,450.188,0,426.667,0z M138.667,42.667
				c5.891,0,10.667,4.775,10.667,10.667c0,5.891-4.776,10.667-10.667,10.667S128,59.224,128,53.333
				C128,47.441,132.776,42.667,138.667,42.667z M96,42.667c5.891,0,10.667,4.775,10.667,10.667C106.667,59.224,101.891,64,96,64
				s-10.667-4.776-10.667-10.667C85.333,47.441,90.109,42.667,96,42.667z M53.333,42.667C59.224,42.667,64,47.441,64,53.333
				C64,59.224,59.224,64,53.333,64s-10.667-4.776-10.667-10.667C42.667,47.441,47.443,42.667,53.333,42.667z M426.667,426.667h-384
				v-320h384V426.667z"/>
		</g>
	</g>
</g>
<g>
</g>
<g>
</g>
<g>
</g>
<g>
</g>
<g>
</g>
<g>
</g>
<g>
</g>
<g>
</g>
<g>
</g>
<g>
</g>
<g>
</g>
<g>
</g>
<g>
</g>
<g>
</g>
<g>
</g>
</svg>
